<?xml version="1.0" encoding="UTF-8"?>
<svg id="Capa_1" data-name="Capa 1" xmlns="http://www.w3.org/2000/svg" xmlns:xlink="http://www.w3.org/1999/xlink" viewBox="0 0 247.36 106.78">
  <defs>
    <style>
      .cls-1 {
        fill: #fff;
      }

      .cls-2 {
        fill: none;
        stroke: #efefef;
        stroke-miterlimit: 10;
      }

      .cls-3 {
        fill: url(#Degradado_sin_nombre_9);
      }

      .cls-4 {
        fill: #efefef;
      }

      .cls-5 {
        fill: #1d1d1b;
      }
    </style>
    <linearGradient id="Degradado_sin_nombre_9" data-name="Degradado sin nombre 9" x1="62.47" y1="31.22" x2="124.91" y2="31.22" gradientUnits="userSpaceOnUse">
      <stop offset="0" stop-color="#367ae1"/>
      <stop offset=".46" stop-color="#5e50b7"/>
      <stop offset="1" stop-color="#941b80"/>
    </linearGradient>
  </defs>
  <g>
    <g>
      <path class="cls-5" d="M41.57,106.49v-25.33h4.78v25.33h-4.78Z"/>
      <path class="cls-5" d="M71.64,103.74c-.76,1.95-1.45,3.04-3.62,3.04s-2.86-1.09-3.62-3.04l-6.48-16.9c-.11-.29-.36-.83-.62-.83-.4,0-.4,.65-.4,.76l.11,19.72h-4.78v-22.29c0-2.32,1.56-3.33,4.09-3.33,2.9,0,3.76,1.48,4.45,3.26l6.55,16.9c.25,.54,.43,.94,.69,.94s.43-.4,.69-.94l6.55-16.9c.69-1.77,1.56-3.26,4.45-3.26,2.53,0,4.09,1.01,4.09,3.33v22.29h-4.78l.14-19.72c0-.69-.29-.76-.43-.76-.25,0-.51,.54-.62,.83l-6.48,16.9Z"/>
      <path class="cls-5" d="M129.02,84.95c-6.15,0-8.07,1.99-8.07,8.87s1.92,8.87,8.07,8.87h3.84c1.45,0,1.81-.36,1.81-1.81v-6.8h4.78v8.61c0,2.9-1.52,3.8-3.69,3.8h-8.97c-8.69,0-10.75-5.43-10.75-12.67s2.06-12.67,10.75-12.67h12.09v3.8h-9.84Z"/>
      <path class="cls-5" d="M145.4,106.49v-25.33h4.78v25.33h-4.78Z"/>
      <path class="cls-5" d="M178.76,103.19c0,2.57-1.7,3.58-3.76,3.58-1.56,0-2.97-.36-4.09-2.14l-10.68-16.86c-.4-.54-.47-.62-.58-.62-.18,0-.51,.18-.51,.72v18.6h-4.63v-22.18c0-2.17,1.45-3.44,3.87-3.44,2.28,0,3.33,.87,4.02,1.99l10.75,16.97c.18,.25,.25,.61,.58,.61,.4,0,.4-.43,.4-.61v-18.67h4.63v22.04Z"/>
      <path class="cls-5" d="M195.37,84.95c-6.15,0-8.07,1.99-8.07,8.87s1.92,8.87,8.07,8.87h3.84c1.45,0,1.81-.36,1.81-1.81v-6.8h4.78v8.61c0,2.9-1.52,3.8-3.69,3.8h-8.97c-8.69,0-10.75-5.43-10.75-12.67s2.06-12.67,10.75-12.67h12.09v3.8h-9.84Z"/>
      <path class="cls-5" d="M104.83,83.72c-.9-2.14-1.99-2.86-4.16-2.86-2.28,0-3.26,.72-4.16,2.86l-9.55,22.76h5.03l2.57-6.41,1.23-3.4,4.16-10.31c.14-.4,.4-1.05,.72-1.05s.58,.65,.72,1.05l4.13,10.31,1.23,3.4,2.61,6.41h5.03l-9.55-22.76Z"/>
    </g>
    <g>
      <path class="cls-1" d="M41.57,106.49v-25.33h4.78v25.33h-4.78Z"/>
      <path class="cls-1" d="M71.64,103.74c-.76,1.95-1.45,3.04-3.62,3.04s-2.86-1.09-3.62-3.04l-6.48-16.9c-.11-.29-.36-.83-.62-.83-.4,0-.4,.65-.4,.76l.11,19.72h-4.78v-22.29c0-2.32,1.56-3.33,4.09-3.33,2.9,0,3.76,1.48,4.45,3.26l6.55,16.9c.25,.54,.43,.94,.69,.94s.43-.4,.69-.94l6.55-16.9c.69-1.77,1.56-3.26,4.45-3.26,2.53,0,4.09,1.01,4.09,3.33v22.29h-4.78l.14-19.72c0-.69-.29-.76-.43-.76-.25,0-.51,.54-.62,.83l-6.48,16.9Z"/>
      <path class="cls-1" d="M129.02,84.95c-6.15,0-8.07,1.99-8.07,8.87s1.92,8.87,8.07,8.87h3.84c1.45,0,1.81-.36,1.81-1.81v-6.8h4.78v8.61c0,2.9-1.52,3.8-3.69,3.8h-8.97c-8.69,0-10.75-5.43-10.75-12.67s2.06-12.67,10.75-12.67h12.09v3.8h-9.84Z"/>
      <path class="cls-1" d="M145.4,106.49v-25.33h4.78v25.33h-4.78Z"/>
      <path class="cls-1" d="M178.76,103.19c0,2.57-1.7,3.58-3.76,3.58-1.56,0-2.97-.36-4.09-2.14l-10.68-16.86c-.4-.54-.47-.62-.58-.62-.18,0-.51,.18-.51,.72v18.6h-4.63v-22.18c0-2.17,1.45-3.44,3.87-3.44,2.28,0,3.33,.87,4.02,1.99l10.75,16.97c.18,.25,.25,.61,.58,.61,.4,0,.4-.43,.4-.61v-18.67h4.63v22.04Z"/>
      <path class="cls-1" d="M195.37,84.95c-6.15,0-8.07,1.99-8.07,8.87s1.92,8.87,8.07,8.87h3.84c1.45,0,1.81-.36,1.81-1.81v-6.8h4.78v8.61c0,2.9-1.52,3.8-3.69,3.8h-8.97c-8.69,0-10.75-5.43-10.75-12.67s2.06-12.67,10.75-12.67h12.09v3.8h-9.84Z"/>
      <path class="cls-1" d="M104.83,83.72c-.9-2.14-1.99-2.86-4.16-2.86-2.28,0-3.26,.72-4.16,2.86l-9.55,22.76h5.03l2.57-6.41,1.23-3.4,4.16-10.31c.14-.4,.4-1.05,.72-1.05s.58,.65,.72,1.05l4.13,10.31,1.23,3.4,2.61,6.41h5.03l-9.55-22.76Z"/>
    </g>
  </g>
  <g>
    <path class="cls-4" d="M52.05,51.61c0,3.86-1.92,9.13-9.33,9.85-3.49,.34-6.98,.07-9.66-4.31-6.77-10.99-13.36-22.08-19.77-33.28-.58-1.01-1.02-1.42-1.38-1.41-.29,.01-.87,.21-.87,1.78-.01,13.44-.03,26.88-.04,40.32-4.4,.62-6.6,.95-11,1.64V12.85C0,6.08,4.22,3.04,9.6,3.04c3.64,0,7.13,1.22,9.38,5.12,6.46,11.4,13.11,22.69,19.93,33.89,.36,.55,.65,1.35,1.31,1.3,.8-.06,.8-1.04,.8-1.45,.03-12.74,.06-25.48,.09-38.21,4.42,0,6.64,0,11.06-.01-.04,15.98-.07,31.95-.11,47.93Z"/>
    <path class="cls-4" d="M160.85,44.1c.22,.71,.58,1.18,1.02,1.2,.44,.01,.73-.44,1.02-1.13,4.55-13.48,9.07-26.98,13.54-40.49,5.59,0,8.38,0,13.97,.01-5.92,16.11-11.91,32.18-18.02,48.21-1.45,3.86-3.92,7.14-10.48,6.86-6.56-.28-9.12-3.81-10.58-7.64-6-15.84-12.05-31.65-18.09-47.47,5.59,0,8.38,0,13.97,0,4.57,13.47,9.13,26.95,13.67,40.44Z"/>
    <path class="cls-4" d="M228.31,10.04c-2.04-5.84-5.39-7-9.98-7-6.26,0-8.36,2.24-10.03,6.73-6.17,16.63-12.47,33.2-18.88,49.73,5.48,.41,8.21,.64,13.68,1.15,1.82-5.04,2.73-7.57,4.55-12.68l3.17-10.96c2.57-7.17,3.86-10.79,6.43-18.12,.29-.91,.58-1.82,1.09-1.81s.73,.94,1.02,1.87c2.6,7.52,3.9,11.33,6.5,19.06l3.21,11.87c1.84,5.66,2.75,8.51,4.59,14.29,5.48,.75,8.21,1.15,13.68,2.01-6.12-18.8-12.4-37.54-19.05-56.16Z"/>
    <path class="cls-3" d="M117.53,16.28c-.21-.6-.33-1.25-.33-1.92,0-1.1,.31-2.13,.85-3,0,0,0-.01,.01-.02,.29-.36,.58-.72,.85-1.06,4.39-5.52,6.65-9.28,5.83-10.11-.83-.83-4.63,1.45-10.19,5.88-.24,.19-.48,.39-.73,.58-.92,.62-2.02,.99-3.22,.99-.88,0-1.7-.2-2.45-.55h0c-.27-.17-.54-.32-.82-.48-4.04-2.25-8.69-3.54-13.64-3.54-15.52,0-28.15,12.63-28.15,28.15,0,4.82,1.22,9.36,3.36,13.32t.01,.01c.28,.53,.58,1.04,.9,1.54,.26,.65,.4,1.36,.4,2.1,0,.89-.2,1.73-.57,2.49,0,0,0,.01,0,.02-.56,.68-1.08,1.33-1.57,1.97-4.12,5.23-6.22,8.79-5.42,9.6,.79,.79,4.27-1.26,9.41-5.28,.76-.59,1.55-1.23,2.38-1.91,.7-.3,1.47-.47,2.28-.47,.62,0,1.22,.1,1.78,.29,.67,.43,1.37,.84,2.08,1.21,3.92,2.08,8.38,3.26,13.11,3.26,15.53,0,28.16-12.64,28.16-28.16,0-4.74-1.18-9.2-3.26-13.12-.32-.62-.67-1.23-1.05-1.81Zm-10.03,7.13c1.31,2.3,2.07,4.96,2.07,7.8,0,8.76-7.13,15.88-15.88,15.88-2.84,0-5.5-.76-7.8-2.07,3.49-3.24,7.21-6.8,11.01-10.6,3.8-3.8,7.37-7.51,10.6-11.01Zm-34.15,7.8c0-11.21,9.12-20.33,20.33-20.33,4.15,0,8.01,1.25,11.23,3.39-.53,.48-1.07,.97-1.62,1.47-2.8-1.74-6.09-2.75-9.62-2.75-10.04,0-18.22,8.17-18.22,18.22,0,3.53,1.01,6.82,2.75,9.61-.5,.55-.99,1.09-1.47,1.62-2.14-3.22-3.39-7.08-3.39-11.23Zm6.53,7.81c-1.31-2.31-2.07-4.97-2.07-7.81,0-8.76,7.12-15.87,15.87-15.87,2.84,0,5.5,.75,7.81,2.06-3.49,3.24-7.21,6.81-11.01,10.61s-7.37,7.51-10.6,11.01Zm13.81,12.53c-4.14,0-8.01-1.25-11.23-3.39,.53-.48,1.07-.96,1.62-1.47,2.79,1.75,6.09,2.76,9.61,2.76,10.05,0,18.23-8.18,18.23-18.23,0-3.52-1.01-6.82-2.75-9.61,.5-.55,.99-1.08,1.46-1.62,2.14,3.22,3.4,7.07,3.4,11.23,0,11.21-9.12,20.33-20.34,20.33Z"/>
  </g>
  <g>
    <g>
      <path class="cls-5" d="M41.57,106.49v-25.33h4.78v25.33h-4.78Z"/>
      <path class="cls-5" d="M71.64,103.74c-.76,1.95-1.45,3.04-3.62,3.04s-2.86-1.09-3.62-3.04l-6.48-16.9c-.11-.29-.36-.83-.62-.83-.4,0-.4,.65-.4,.76l.11,19.72h-4.78v-22.29c0-2.32,1.56-3.33,4.09-3.33,2.9,0,3.76,1.48,4.45,3.26l6.55,16.9c.25,.54,.43,.94,.69,.94s.43-.4,.69-.94l6.55-16.9c.69-1.77,1.56-3.26,4.45-3.26,2.53,0,4.09,1.01,4.09,3.33v22.29h-4.78l.14-19.72c0-.69-.29-.76-.43-.76-.25,0-.51,.54-.62,.83l-6.48,16.9Z"/>
      <path class="cls-5" d="M129.02,84.95c-6.15,0-8.07,1.99-8.07,8.87s1.92,8.87,8.07,8.87h3.84c1.45,0,1.81-.36,1.81-1.81v-6.8h4.78v8.61c0,2.9-1.52,3.8-3.69,3.8h-8.97c-8.69,0-10.75-5.43-10.75-12.67s2.06-12.67,10.75-12.67h12.09v3.8h-9.84Z"/>
      <path class="cls-5" d="M145.4,106.49v-25.33h4.78v25.33h-4.78Z"/>
      <path class="cls-5" d="M178.76,103.19c0,2.57-1.7,3.58-3.76,3.58-1.56,0-2.97-.36-4.09-2.14l-10.68-16.86c-.4-.54-.47-.62-.58-.62-.18,0-.51,.18-.51,.72v18.6h-4.63v-22.18c0-2.17,1.45-3.44,3.87-3.44,2.28,0,3.33,.87,4.02,1.99l10.75,16.97c.18,.25,.25,.61,.58,.61,.4,0,.4-.43,.4-.61v-18.67h4.63v22.04Z"/>
      <path class="cls-5" d="M195.37,84.95c-6.15,0-8.07,1.99-8.07,8.87s1.92,8.87,8.07,8.87h3.84c1.45,0,1.81-.36,1.81-1.81v-6.8h4.78v8.61c0,2.9-1.52,3.8-3.69,3.8h-8.97c-8.69,0-10.75-5.43-10.75-12.67s2.06-12.67,10.75-12.67h12.09v3.8h-9.84Z"/>
      <path class="cls-5" d="M104.83,83.72c-.9-2.14-1.99-2.86-4.16-2.86-2.28,0-3.26,.72-4.16,2.86l-9.55,22.76h5.03l2.57-6.41,1.23-3.4,4.16-10.31c.14-.4,.4-1.05,.72-1.05s.58,.65,.72,1.05l4.13,10.31,1.23,3.4,2.61,6.41h5.03l-9.55-22.76Z"/>
    </g>
    <g>
      <path class="cls-4" d="M41.57,106.49v-25.33h4.78v25.33h-4.78Z"/>
      <path class="cls-4" d="M71.64,103.74c-.76,1.95-1.45,3.04-3.62,3.04s-2.86-1.09-3.62-3.04l-6.48-16.9c-.11-.29-.36-.83-.62-.83-.4,0-.4,.65-.4,.76l.11,19.72h-4.78v-22.29c0-2.32,1.56-3.33,4.09-3.33,2.9,0,3.76,1.48,4.45,3.26l6.55,16.9c.25,.54,.43,.94,.69,.94s.43-.4,.69-.94l6.55-16.9c.69-1.77,1.56-3.26,4.45-3.26,2.53,0,4.09,1.01,4.09,3.33v22.29h-4.78l.14-19.72c0-.69-.29-.76-.43-.76-.25,0-.51,.54-.62,.83l-6.48,16.9Z"/>
      <path class="cls-4" d="M129.02,84.95c-6.15,0-8.07,1.99-8.07,8.87s1.92,8.87,8.07,8.87h3.84c1.45,0,1.81-.36,1.81-1.81v-6.8h4.78v8.61c0,2.9-1.52,3.8-3.69,3.8h-8.97c-8.69,0-10.75-5.43-10.75-12.67s2.06-12.67,10.75-12.67h12.09v3.8h-9.84Z"/>
      <path class="cls-4" d="M145.4,106.49v-25.33h4.78v25.33h-4.78Z"/>
      <path class="cls-4" d="M178.76,103.19c0,2.57-1.7,3.58-3.76,3.58-1.56,0-2.97-.36-4.09-2.14l-10.68-16.86c-.4-.54-.47-.62-.58-.62-.18,0-.51,.18-.51,.72v18.6h-4.63v-22.18c0-2.17,1.45-3.44,3.87-3.44,2.28,0,3.33,.87,4.02,1.99l10.75,16.97c.18,.25,.25,.61,.58,.61,.4,0,.4-.43,.4-.61v-18.67h4.63v22.04Z"/>
      <path class="cls-4" d="M195.37,84.95c-6.15,0-8.07,1.99-8.07,8.87s1.92,8.87,8.07,8.87h3.84c1.45,0,1.81-.36,1.81-1.81v-6.8h4.78v8.61c0,2.9-1.52,3.8-3.69,3.8h-8.97c-8.69,0-10.75-5.43-10.75-12.67s2.06-12.67,10.75-12.67h12.09v3.8h-9.84Z"/>
      <path class="cls-4" d="M104.83,83.72c-.9-2.14-1.99-2.86-4.16-2.86-2.28,0-3.26,.72-4.16,2.86l-9.55,22.76h5.03l2.57-6.41,1.23-3.4,4.16-10.31c.14-.4,.4-1.05,.72-1.05s.58,.65,.72,1.05l4.13,10.31,1.23,3.4,2.61,6.41h5.03l-9.55-22.76Z"/>
    </g>
    <g>
      <path class="cls-2" d="M41.57,106.49v-25.33h4.78v25.33h-4.78Z"/>
      <path class="cls-2" d="M71.64,103.74c-.76,1.95-1.45,3.04-3.62,3.04s-2.86-1.09-3.62-3.04l-6.48-16.9c-.11-.29-.36-.83-.62-.83-.4,0-.4,.65-.4,.76l.11,19.72h-4.78v-22.29c0-2.32,1.56-3.33,4.09-3.33,2.9,0,3.76,1.48,4.45,3.26l6.55,16.9c.25,.54,.43,.94,.69,.94s.43-.4,.69-.94l6.55-16.9c.69-1.77,1.56-3.26,4.45-3.26,2.53,0,4.09,1.01,4.09,3.33v22.29h-4.78l.14-19.72c0-.69-.29-.76-.43-.76-.25,0-.51,.54-.62,.83l-6.48,16.9Z"/>
      <path class="cls-2" d="M129.02,84.95c-6.15,0-8.07,1.99-8.07,8.87s1.92,8.87,8.07,8.87h3.84c1.45,0,1.81-.36,1.81-1.81v-6.8h4.78v8.61c0,2.9-1.52,3.8-3.69,3.8h-8.97c-8.69,0-10.75-5.43-10.75-12.67s2.06-12.67,10.75-12.67h12.09v3.8h-9.84Z"/>
      <path class="cls-2" d="M145.4,106.49v-25.33h4.78v25.33h-4.78Z"/>
      <path class="cls-2" d="M178.76,103.19c0,2.57-1.7,3.58-3.76,3.58-1.56,0-2.97-.36-4.09-2.14l-10.68-16.86c-.4-.54-.47-.62-.58-.62-.18,0-.51,.18-.51,.72v18.6h-4.63v-22.18c0-2.17,1.45-3.44,3.87-3.44,2.28,0,3.33,.87,4.02,1.99l10.75,16.97c.18,.25,.25,.61,.58,.61,.4,0,.4-.43,.4-.61v-18.67h4.63v22.04Z"/>
      <path class="cls-2" d="M195.37,84.95c-6.15,0-8.07,1.99-8.07,8.87s1.92,8.87,8.07,8.87h3.84c1.45,0,1.81-.36,1.81-1.81v-6.8h4.78v8.61c0,2.9-1.52,3.8-3.69,3.8h-8.97c-8.69,0-10.75-5.43-10.75-12.67s2.06-12.67,10.75-12.67h12.09v3.8h-9.84Z"/>
      <path class="cls-2" d="M104.83,83.72c-.9-2.14-1.99-2.86-4.16-2.86-2.28,0-3.26,.72-4.16,2.86l-9.55,22.76h5.03l2.57-6.41,1.23-3.4,4.16-10.31c.14-.4,.4-1.05,.72-1.05s.58,.65,.72,1.05l4.13,10.31,1.23,3.4,2.61,6.41h5.03l-9.55-22.76Z"/>
    </g>
  </g>
  <g>
    <path class="cls-4" d="M52.05,51.61c0,3.86-1.92,9.13-9.33,9.85-3.49,.34-6.98,.07-9.66-4.31-6.77-10.99-13.36-22.08-19.77-33.28-.58-1.01-1.02-1.42-1.38-1.41-.29,.01-.87,.21-.87,1.78-.01,13.44-.03,26.88-.04,40.32-4.4,.62-6.6,.95-11,1.64V12.85C0,6.08,4.22,3.04,9.6,3.04c3.64,0,7.13,1.22,9.38,5.12,6.46,11.4,13.11,22.69,19.93,33.89,.36,.55,.65,1.35,1.31,1.3,.8-.06,.8-1.04,.8-1.45,.03-12.74,.06-25.48,.09-38.21,4.42,0,6.64,0,11.06-.01-.04,15.98-.07,31.95-.11,47.93Z"/>
    <path class="cls-4" d="M160.85,44.1c.22,.71,.58,1.18,1.02,1.2,.44,.01,.73-.44,1.02-1.13,4.55-13.48,9.07-26.98,13.54-40.49,5.59,0,8.38,0,13.97,.01-5.92,16.11-11.91,32.18-18.02,48.21-1.45,3.86-3.92,7.14-10.48,6.86-6.56-.28-9.12-3.81-10.58-7.64-6-15.84-12.05-31.65-18.09-47.47,5.59,0,8.38,0,13.97,0,4.57,13.47,9.13,26.95,13.67,40.44Z"/>
    <path class="cls-4" d="M228.31,10.04c-2.04-5.84-5.39-7-9.98-7-6.26,0-8.36,2.24-10.03,6.73-6.17,16.63-12.47,33.2-18.88,49.73,5.48,.41,8.21,.64,13.68,1.15,1.82-5.04,2.73-7.57,4.55-12.68l3.17-10.96c2.57-7.17,3.86-10.79,6.43-18.12,.29-.91,.58-1.82,1.09-1.81s.73,.94,1.02,1.87c2.6,7.52,3.9,11.33,6.5,19.06l3.21,11.87c1.84,5.66,2.75,8.51,4.59,14.29,5.48,.75,8.21,1.15,13.68,2.01-6.12-18.8-12.4-37.54-19.05-56.16Z"/>
    <path class="cls-3" d="M117.53,16.28c-.21-.6-.33-1.25-.33-1.92,0-1.1,.31-2.13,.85-3,0,0,0-.01,.01-.02,.29-.36,.58-.72,.85-1.06,4.39-5.52,6.65-9.28,5.83-10.11-.83-.83-4.63,1.45-10.19,5.88-.24,.19-.48,.39-.73,.58-.92,.62-2.02,.99-3.22,.99-.88,0-1.7-.2-2.45-.55h0c-.27-.17-.54-.32-.82-.48-4.04-2.25-8.69-3.54-13.64-3.54-15.52,0-28.15,12.63-28.15,28.15,0,4.82,1.22,9.36,3.36,13.32t.01,.01c.28,.53,.58,1.04,.9,1.54,.26,.65,.4,1.36,.4,2.1,0,.89-.2,1.73-.57,2.49,0,0,0,.01,0,.02-.56,.68-1.08,1.33-1.57,1.97-4.12,5.23-6.22,8.79-5.42,9.6,.79,.79,4.27-1.26,9.41-5.28,.76-.59,1.55-1.23,2.38-1.91,.7-.3,1.47-.47,2.28-.47,.62,0,1.22,.1,1.78,.29,.67,.43,1.37,.84,2.08,1.21,3.92,2.08,8.38,3.26,13.11,3.26,15.53,0,28.16-12.64,28.16-28.16,0-4.74-1.18-9.2-3.26-13.12-.32-.62-.67-1.23-1.05-1.81Zm-10.03,7.13c1.31,2.3,2.07,4.96,2.07,7.8,0,8.76-7.13,15.88-15.88,15.88-2.84,0-5.5-.76-7.8-2.07,3.49-3.24,7.21-6.8,11.01-10.6,3.8-3.8,7.37-7.51,10.6-11.01Zm-34.15,7.8c0-11.21,9.12-20.33,20.33-20.33,4.15,0,8.01,1.25,11.23,3.39-.53,.48-1.07,.97-1.62,1.47-2.8-1.74-6.09-2.75-9.62-2.75-10.04,0-18.22,8.17-18.22,18.22,0,3.53,1.01,6.82,2.75,9.61-.5,.55-.99,1.09-1.47,1.62-2.14-3.22-3.39-7.08-3.39-11.23Zm6.53,7.81c-1.31-2.31-2.07-4.97-2.07-7.81,0-8.76,7.12-15.87,15.87-15.87,2.84,0,5.5,.75,7.81,2.06-3.49,3.24-7.21,6.81-11.01,10.61s-7.37,7.51-10.6,11.01Zm13.81,12.53c-4.14,0-8.01-1.25-11.23-3.39,.53-.48,1.07-.96,1.62-1.47,2.79,1.75,6.09,2.76,9.61,2.76,10.05,0,18.23-8.18,18.23-18.23,0-3.52-1.01-6.82-2.75-9.61,.5-.55,.99-1.08,1.46-1.62,2.14,3.22,3.4,7.07,3.4,11.23,0,11.21-9.12,20.33-20.34,20.33Z"/>
  </g>
</svg>
